# xmcd
#
# Track frame offsets: 
#        150
#        16347
#        33982
#        47963
#        67215
#        86329
#        99195
#        117484
#        133092
#        145665
#        157500
#        171923
#        185382
#        201642
#        212562
#        228328
#
# Disc length: 3272 seconds
#
# Revision: 0
# Processed by: cddbd v1.5.2PL0 Copyright (c) Steve Scherf et al.
# Submitted via: ExactAudioCopy v1.0b3
#
DISCID=da0cc610
DTITLE=the bluesblasters - I just can't get enougt
DYEAR=1900
DGENRE=Blues
TTITLE0=The point is you 
TTITLE1=better don't look down
TTITLE2=r-e-s-p-e-c-t
TTITLE3=shame, shame, shame
TTITLE4=she got that blue dress
TTITLE5=the house that jack built
TTITLE6=I want you
TTITLE7=brin it on home
TTITLE8=this will be 
TTITLE9=the son of a preacher man
TTITLE10=i can't go
TTITLE11=keep walkin on
TTITLE12=stuck with my baby
TTITLE13=the rocket
TTITLE14=to love somebody
TTITLE15=feelin so right
EXTD=
EXTT0=
EXTT1=
EXTT2=
EXTT3=
EXTT4=
EXTT5=
EXTT6=
EXTT7=
EXTT8=
EXTT9=
EXTT10=
EXTT11=
EXTT12=
EXTT13=
EXTT14=
EXTT15=
PLAYORDER=
